<?xml version="1.0" standalone="no"?>
<!DOCTYPE svg PUBLIC "-//W3C//DTD SVG 20010904//EN"
 "http://www.w3.org/TR/2001/REC-SVG-20010904/DTD/svg10.dtd">
<svg version="1.0" xmlns="http://www.w3.org/2000/svg"
 width="518.000000pt" height="518.000000pt" viewBox="0 0 518.000000 518.000000"
 preserveAspectRatio="xMidYMid meet">
<metadata>
Created by potrace 1.14, written by Peter Selinger 2001-2017
</metadata>
<g transform="translate(0.000000,518.000000) scale(0.100000,-0.100000)"
fill="#000000" stroke="none">
<path d="M2387 5104 c-2 -2 -28 -6 -58 -9 -30 -2 -67 -6 -84 -8 -16 -3 -50 -9
-75 -12 -25 -4 -54 -9 -65 -12 -31 -6 -62 -13 -89 -17 -51 -8 -216 -59 -321
-98 -179 -67 -353 -155 -534 -272 -25 -16 -49 -32 -55 -37 -6 -5 -29 -23 -51
-39 -22 -16 -47 -36 -56 -45 -9 -8 -18 -15 -21 -15 -7 0 -120 -104 -200 -184
-81 -80 -204 -226 -249 -296 -18 -28 -36 -50 -41 -50 -4 0 -8 -5 -8 -10 0 -6
-12 -29 -27 -53 -15 -23 -33 -51 -39 -62 -6 -11 -28 -49 -48 -84 -20 -35 -39
-74 -42 -87 -3 -13 -12 -28 -20 -35 -8 -6 -14 -17 -14 -23 0 -6 -15 -47 -33
-91 -46 -109 -110 -310 -122 -384 -3 -19 -7 -37 -9 -40 -2 -3 -7 -30 -11 -60
-4 -30 -9 -63 -11 -75 -9 -46 -15 -107 -19 -177 -2 -41 -4 -74 -5 -74 -1 0 -3
-10 -4 -22 -2 -13 1 -23 6 -23 5 0 6 -4 3 -10 -5 -9 -10 -97 -5 -110 1 -3 3
-34 6 -70 6 -108 13 -173 22 -217 7 -30 6 -43 -2 -43 -8 0 -8 -3 0 -8 17 -11
25 -42 11 -42 -8 0 -8 -3 2 -9 7 -5 10 -14 7 -20 -4 -6 -2 -11 4 -11 7 0 10
-6 7 -14 -3 -8 -3 -17 1 -20 3 -4 7 -15 9 -26 6 -37 10 -55 18 -72 4 -10 8
-29 9 -43 0 -14 4 -25 9 -25 4 0 7 -9 7 -19 0 -11 4 -22 9 -26 6 -3 10 -13 9
-23 0 -9 9 -39 20 -67 29 -69 35 -89 34 -97 -1 -5 3 -8 9 -8 6 0 8 -7 5 -16
-3 -8 -2 -12 4 -9 6 3 10 -3 10 -14 0 -11 4 -23 10 -26 6 -3 10 -15 10 -25 0
-10 3 -20 8 -22 4 -1 18 -27 31 -55 14 -29 28 -53 33 -53 4 0 8 -7 8 -15 0 -8
5 -15 10 -15 6 0 10 -7 10 -16 0 -9 -5 -12 -12 -8 -7 4 -8 3 -4 -5 4 -6 12 -9
17 -6 5 4 12 -2 16 -12 3 -10 19 -37 35 -60 15 -23 28 -44 28 -48 0 -4 7 -13
15 -22 8 -8 12 -19 9 -25 -4 -7 -2 -8 4 -4 6 4 16 -4 23 -16 7 -12 17 -28 23
-34 6 -6 22 -26 36 -44 14 -18 33 -42 42 -53 10 -11 15 -24 12 -29 -3 -4 0 -7
8 -6 7 2 13 -5 13 -14 0 -9 4 -20 9 -25 5 -4 6 -3 2 5 -10 17 0 15 24 -5 21
-19 28 -39 8 -27 -7 4 -8 3 -4 -4 4 -6 13 -9 21 -5 10 3 15 -1 15 -13 0 -9 2
-15 5 -12 3 3 39 -28 80 -68 41 -41 79 -74 85 -74 6 0 8 -5 5 -10 -3 -6 0 -10
7 -10 8 0 20 -9 28 -20 8 -11 18 -20 22 -20 8 0 39 -23 73 -55 11 -11 23 -20
25 -21 13 -3 135 -86 141 -95 3 -6 8 -9 10 -7 2 1 22 -8 44 -22 22 -13 53 -30
69 -37 21 -10 26 -18 21 -30 -5 -15 -4 -16 6 -6 15 15 33 17 24 3 -3 -5 3 -10
15 -10 13 0 19 -4 14 -12 -4 -7 -3 -8 4 -4 7 4 24 1 39 -7 16 -8 40 -20 56
-28 20 -9 24 -15 15 -21 -8 -5 -3 -6 13 -2 15 3 30 1 34 -5 3 -6 11 -9 16 -6
5 4 9 1 9 -4 0 -6 9 -11 19 -11 27 0 52 -11 46 -19 -2 -4 6 -7 18 -6 12 1 32
-5 45 -13 12 -8 22 -11 22 -6 0 4 5 3 12 -4 7 -7 22 -12 35 -12 13 0 23 -4 23
-9 0 -6 9 -8 20 -6 11 2 25 -2 32 -9 7 -6 22 -12 33 -13 44 -3 65 -8 65 -16 0
-4 6 -7 13 -6 31 4 48 -2 41 -13 -6 -10 -4 -10 7 -2 8 6 21 10 29 8 72 -17 85
-22 82 -35 -1 -8 4 -6 13 5 8 11 15 16 15 10 0 -5 19 -10 42 -11 22 -1 45 -8
49 -15 7 -10 9 -10 9 0 0 20 26 14 39 -10 6 -13 10 -16 7 -6 -3 10 3 18 15 21
16 4 19 2 14 -16 -5 -19 -5 -20 5 -4 6 9 16 15 21 12 5 -4 6 -11 3 -17 -4 -7
-2 -8 5 -4 6 4 9 11 7 15 -3 4 29 6 72 3 54 -3 81 -10 89 -21 12 -15 13 -15 7
1 -4 13 2 16 33 16 21 0 44 -5 52 -11 12 -9 13 -9 7 1 -5 9 5 12 41 13 64 1
138 6 138 8 0 1 17 3 37 5 21 2 35 -1 32 -5 -2 -5 8 -2 23 6 36 19 79 20 67 2
-5 -7 -1 -4 9 6 12 13 17 15 17 6 0 -12 2 -12 9 0 5 8 19 12 35 9 14 -3 23 -1
20 3 -3 5 6 10 20 10 26 1 44 5 49 8 1 2 12 4 24 7 22 4 25 -9 8 -36 -8 -13
-7 -13 8 -1 9 7 15 17 12 21 -7 11 20 31 47 35 36 6 52 10 63 16 6 4 24 10 40
14 34 9 34 10 55 17 48 19 84 27 93 21 5 -3 7 -1 4 4 -4 6 2 13 13 16 10 3 21
0 24 -7 2 -6 5 -3 5 7 1 9 7 18 14 19 6 0 17 2 22 2 6 1 17 6 25 11 40 26 61
34 55 22 -4 -7 1 -3 10 8 9 11 18 19 21 17 2 -1 18 5 35 14 17 8 29 12 26 6
-4 -5 0 -9 7 -9 8 0 12 6 10 12 -5 11 43 40 59 37 4 -1 7 2 7 8 0 5 7 6 17 3
11 -4 14 -3 9 5 -6 11 0 14 21 11 3 0 10 7 15 16 6 10 17 14 31 11 12 -3 16
-3 9 0 -6 3 -9 10 -6 15 3 6 11 5 20 -2 9 -7 14 -8 13 -3 -3 20 1 35 10 30 5
-3 12 1 15 10 3 8 10 13 15 10 5 -3 14 1 21 10 7 8 19 13 27 10 8 -3 12 -2 9
3 -8 12 38 48 54 43 8 -3 12 -1 8 3 -10 11 15 33 31 27 8 -3 12 -1 9 4 -3 5 0
15 8 22 8 7 14 9 14 5 0 -4 5 0 11 10 6 9 15 15 20 11 5 -3 8 0 7 7 -2 6 3 14
11 17 9 3 11 0 6 -9 -5 -8 -4 -11 1 -6 9 8 10 12 13 39 0 6 4 9 7 5 3 -3 21
10 39 28 18 19 35 31 39 28 3 -4 6 2 6 11 0 10 6 16 13 13 6 -2 11 -10 9 -16
-1 -7 3 -9 9 -6 8 5 8 10 0 18 -13 13 -15 31 -3 23 4 -2 17 9 27 25 11 16 26
27 32 24 7 -2 12 -1 12 3 -4 22 3 33 15 29 10 -4 13 -1 10 7 -3 8 5 21 18 30
12 9 20 16 16 16 -3 0 7 15 24 34 19 22 36 33 47 29 13 -4 13 -3 2 5 -12 8
-11 14 6 36 11 14 23 22 27 19 3 -3 6 1 6 9 0 9 10 23 23 32 12 9 16 14 9 10
-8 -3 16 37 53 90 36 53 62 96 58 96 -4 0 -3 4 2 8 17 12 117 204 136 260 6
18 14 30 19 27 5 -3 7 3 5 12 -1 10 2 27 8 38 6 11 12 22 12 25 0 3 6 15 13
28 7 12 10 22 7 22 -2 0 4 22 15 49 10 27 16 52 13 55 -4 3 -1 6 6 6 7 0 10 4
6 9 -3 5 2 17 11 25 8 9 10 16 4 16 -7 0 -7 7 1 23 7 12 12 23 11 25 -5 6 11
82 17 82 4 0 6 12 5 28 -1 15 1 32 5 37 6 10 7 22 10 71 0 14 5 23 10 19 10
-6 6 33 -4 43 -2 3 0 11 6 18 6 8 9 21 5 29 -3 8 -2 15 2 15 11 0 16 313 7
420 -5 63 -14 141 -19 170 -21 127 -29 169 -42 218 -9 31 -18 68 -21 82 -2 14
-8 34 -13 45 -5 11 -20 54 -33 95 -56 165 -167 398 -233 487 -13 17 -24 36
-24 42 0 6 -4 11 -10 11 -5 0 -10 6 -10 13 0 7 -8 22 -18 33 -9 10 -35 44 -57
74 -169 234 -465 497 -730 649 -230 132 -530 251 -725 287 -14 2 -36 7 -50 10
-14 3 -36 8 -50 10 -14 2 -34 6 -45 9 -11 2 -40 6 -65 10 -25 3 -63 8 -85 11
-49 7 -471 15 -478 8z"/>
<path d="M5000 1900 c-9 -6 -10 -10 -3 -10 6 0 15 5 18 10 8 12 4 12 -15 0z"/>
<path d="M4686 1262 c-3 -5 1 -9 9 -9 8 0 12 4 9 9 -3 4 -7 8 -9 8 -2 0 -6 -4
-9 -8z"/>
<path d="M4536 1078 c3 -5 10 -6 15 -3 13 9 11 12 -6 12 -8 0 -12 -4 -9 -9z"/>
<path d="M4494 1056 c1 -8 5 -18 8 -22 4 -3 5 1 4 10 -1 8 -5 18 -8 22 -4 3
-5 -1 -4 -10z"/>
<path d="M670 1026 c0 -2 7 -7 16 -10 8 -3 12 -2 9 4 -6 10 -25 14 -25 6z"/>
<path d="M774 938 c-4 -7 -4 -10 1 -6 4 4 15 2 24 -5 14 -11 14 -10 2 6 -16
20 -18 21 -27 5z"/>
<path d="M4335 880 c3 -5 8 -10 11 -10 2 0 4 5 4 10 0 6 -5 10 -11 10 -5 0 -7
-4 -4 -10z"/>
<path d="M975 771 c-3 -5 -2 -12 3 -15 5 -3 9 1 9 9 0 17 -3 19 -12 6z"/>
<path d="M4239 753 c-13 -16 -12 -17 4 -4 16 13 21 21 13 21 -2 0 -10 -8 -17
-17z"/>
<path d="M1030 706 c0 -2 7 -7 16 -10 8 -3 12 -2 9 4 -6 10 -25 14 -25 6z"/>
<path d="M1146 618 c3 -5 10 -6 15 -3 13 9 11 12 -6 12 -8 0 -12 -4 -9 -9z"/>
<path d="M1175 600 c-3 -5 -1 -10 4 -10 6 0 11 5 11 10 0 6 -2 10 -4 10 -3 0
-8 -4 -11 -10z"/>
<path d="M4040 600 c-9 -6 -10 -10 -3 -10 6 0 15 5 18 10 8 12 4 12 -15 0z"/>
<path d="M3935 560 c3 -5 8 -10 11 -10 2 0 4 5 4 10 0 6 -5 10 -11 10 -5 0 -7
-4 -4 -10z"/>
<path d="M1315 541 c-3 -5 -2 -12 3 -15 5 -3 9 1 9 9 0 17 -3 19 -12 6z"/>
<path d="M1340 506 c0 -2 8 -10 18 -17 15 -13 16 -12 3 4 -13 16 -21 21 -21
13z"/>
<path d="M3796 498 c3 -5 10 -6 15 -3 13 9 11 12 -6 12 -8 0 -12 -4 -9 -9z"/>
<path d="M1399 478 c-5 -18 -6 -38 -1 -34 7 8 12 36 6 36 -2 0 -4 -1 -5 -2z"/>
<path d="M3710 476 c0 -2 8 -10 18 -17 15 -13 16 -12 3 4 -13 16 -21 21 -21
13z"/>
<path d="M3621 416 c-9 -11 -9 -16 0 -22 7 -4 9 -3 5 4 -3 6 2 15 11 21 10 6
13 11 7 11 -6 0 -17 -6 -23 -14z"/>
<path d="M1546 402 c-3 -5 1 -9 9 -9 8 0 12 4 9 9 -3 4 -7 8 -9 8 -2 0 -6 -4
-9 -8z"/>
<path d="M1655 360 c-3 -5 -1 -10 4 -10 6 0 11 5 11 10 0 6 -2 10 -4 10 -3 0
-8 -4 -11 -10z"/>
<path d="M3530 360 c0 -5 5 -10 11 -10 5 0 7 5 4 10 -3 6 -8 10 -11 10 -2 0
-4 -4 -4 -10z"/>
<path d="M1745 340 c-3 -6 1 -7 9 -4 18 7 21 14 7 14 -6 0 -13 -4 -16 -10z"/>
<path d="M3410 319 c0 -5 5 -7 10 -4 6 3 10 8 10 11 0 2 -4 4 -10 4 -5 0 -10
-5 -10 -11z"/>
<path d="M2056 267 c3 -10 9 -15 12 -12 3 3 0 11 -7 18 -10 9 -11 8 -5 -6z"/>
<path d="M3267 259 c7 -7 15 -10 18 -7 3 3 -2 9 -12 12 -14 6 -15 5 -6 -5z"/>
<path d="M2075 229 c-4 -6 -5 -12 -2 -15 2 -3 7 2 10 11 7 17 1 20 -8 4z"/>
<path d="M2167 219 c7 -7 15 -10 18 -7 3 3 -2 9 -12 12 -14 6 -15 5 -6 -5z"/>
<path d="M2446 178 c3 -5 10 -6 15 -3 13 9 11 12 -6 12 -8 0 -12 -4 -9 -9z"/>
</g>
</svg>
